<svg width="477" height="637" viewBox="0 0 477 637" fill="none" xmlns="http://www.w3.org/2000/svg">
<path d="M257.773 17.2899C227.888 6.73238 195.948 -0.316338 164.17 0.853891C159.12 12.2337 153.631 23.4343 148.544 34.8474C131.037 74.1232 112.495 111.479 91.1063 148.789C69.3464 186.746 50.2553 225.901 33.5452 266.344C17.3041 305.652 -1.0557 348.865 1.12008 392.398C2.917 428.352 22.3132 463.083 39.7635 493.499C74.5956 554.212 126.056 608.321 195.34 627.461C276.38 649.848 378.843 631.365 434.847 565.318C453.494 543.326 473.288 515.959 475.755 486.134C477.404 466.201 471.489 454.424 462.788 437.098L462.681 436.885C445.096 401.871 421.701 370.301 407.321 333.58C392.625 296.05 394.892 261.449 403.443 222.929L403.453 222.882C409.561 195.369 414.834 171.614 406.687 143.664C386.745 75.2441 320.955 39.6098 257.773 17.2899Z" fill="#FFB5C2"/>
</svg>
