<svg width="324" height="744" viewBox="0 0 324 744" fill="none" xmlns="http://www.w3.org/2000/svg">
<path d="M101.295 39.0034C114.946 21.0864 133.026 3.85927 155.72 0.0768738C155.921 1.26247 156.093 2.44578 156.223 3.6261C160.093 38.8326 169.569 66.9258 193.462 94.1176C233.899 140.137 280.244 176.816 303.876 235.255C318.275 270.859 323.768 307.348 323.427 345.669C322.802 415.998 314.833 488.624 297.546 556.816C282.349 616.76 256.199 702.413 195.882 733.703C142.042 761.633 76.8397 725.609 41.7117 684.547C5.04555 641.687 -1.26989 580.851 0.189904 526.838C1.39601 482.213 13.5505 439.944 31.2847 399.294C43.6047 371.054 65.2534 344.643 66.6621 312.712C68.3946 273.442 51.422 236.072 49.9044 197.084C47.64 138.913 66.1478 85.1336 101.295 39.0034Z" fill="#FFB5C2"/>
</svg>
