<svg width="359" height="641" viewBox="0 0 359 641" fill="none" xmlns="http://www.w3.org/2000/svg">
<path d="M321.201 42.3628C293.473 14.2325 251.261 4.1739 212.479 0.134853C210.456 6.09414 207.706 11.805 203.867 17.5626C194.956 30.9298 175.681 31.6059 161.754 36.5137C122.542 50.3313 75.7206 73.3231 51.9076 109.043C26.8238 146.668 18.8957 198.1 11.7827 241.232C0.860673 307.462 -4.89411 374.954 5.34867 441.74C14.199 499.446 35.4381 567.55 77.1757 610.662C99.3296 633.546 129.202 647.441 160.818 636.983C200.395 623.892 238.772 584.796 265.985 555.213C313.196 503.889 339.278 448.864 351.148 379.973C364.766 300.937 357.153 218.202 350.914 138.756C348.245 104.775 346.842 68.377 321.201 42.3628Z" fill="#FFBE86"/>
</svg>
