<svg width="215" height="736" viewBox="0 0 215 736" fill="none" xmlns="http://www.w3.org/2000/svg">
<path d="M102.881 102.571C107.37 71.0615 117.015 31.0483 136.414 0.258038C139.175 5.40955 141.996 10.533 144.644 15.7703C158.732 43.6415 166.508 71.1152 170.848 102.337C180.341 170.645 186.206 239.501 194.244 307.992C199.941 356.532 206.387 405.028 210.388 453.751C214.844 508.034 217.297 563.334 207.814 617.292C201.664 652.284 191.896 695.427 163.361 719.886C123.165 754.339 74.6808 726.609 52.8126 686.429C28.62 641.979 34.4866 592.928 26.8426 544.998C17.1785 484.402 -22.0355 412.617 16.8991 354.434C36.61 324.978 62.1365 303.909 76.7939 270.323C100.321 216.416 94.784 159.406 102.881 102.571Z" fill="#FFBE86"/>
</svg>
