<svg width="48" height="48" viewBox="0 0 48 48" fill="none" xmlns="http://www.w3.org/2000/svg">
<path d="M24 8.66667V39.3333M16.3333 32.1318L18.5797 33.8159C21.5722 36.0622 26.4252 36.0622 29.4203 33.8159C32.4154 31.5696 32.4154 27.9304 29.4203 25.6841C27.9253 24.5597 25.9627 24 24 24C22.1472 24 20.2944 23.4378 18.8812 22.3159C16.0548 20.0696 16.0548 16.4304 18.8812 14.1841C21.7077 11.9378 26.2923 11.9378 29.1188 14.1841L30.1793 15.0274M47 24C47 27.0204 46.4051 30.0112 45.2492 32.8017C44.0934 35.5922 42.3992 38.1277 40.2635 40.2635C38.1277 42.3992 35.5922 44.0934 32.8017 45.2492C30.0112 46.4051 27.0204 47 24 47C20.9796 47 17.9888 46.4051 15.1983 45.2492C12.4078 44.0934 9.87229 42.3992 7.73654 40.2635C5.6008 38.1277 3.90663 35.5922 2.75077 32.8017C1.59491 30.0112 1 27.0204 1 24C1 17.9 3.42321 12.0499 7.73654 7.73654C12.0499 3.42321 17.9 1 24 1C30.1 1 35.9501 3.42321 40.2635 7.73654C44.5768 12.0499 47 17.9 47 24Z" stroke="black" stroke-width="1.5" stroke-linecap="round" stroke-linejoin="round"/>
</svg>
