<svg width="40" height="32" viewBox="0 0 40 32" fill="none" xmlns="http://www.w3.org/2000/svg">
<path d="M36.0769 7.81818L34.859 27.1491C34.7933 28.191 34.3034 29.1701 33.4894 29.886C32.6753 30.6019 31.5988 31.0004 30.4802 31H9.5198C8.40116 31.0004 7.32465 30.6019 6.51064 29.886C5.69662 29.1701 5.20665 28.191 5.14103 27.1491L3.92308 7.81818M16.1026 14.6364H23.8974M3.19231 7.81818H36.8077C38.0178 7.81818 39 6.90182 39 5.77273V3.04545C39 1.91636 38.0178 1 36.8077 1H3.19231C1.98215 1 1 1.91636 1 3.04545V5.77273C1 6.90182 1.98215 7.81818 3.19231 7.81818Z" stroke="#626367" stroke-width="1.5" stroke-linecap="round" stroke-linejoin="round"/>
</svg>
