<svg width="40" height="40" viewBox="0 0 40 40" fill="none" xmlns="http://www.w3.org/2000/svg">
<path d="M20 7.33333V20H29.5M39 20C39 22.4951 38.5086 24.9658 37.5537 27.271C36.5989 29.5762 35.1993 31.6707 33.435 33.435C31.6707 35.1993 29.5762 36.5989 27.271 37.5537C24.9658 38.5086 22.4951 39 20 39C17.5049 39 15.0342 38.5086 12.729 37.5537C10.4238 36.5989 8.32928 35.1993 6.56497 33.435C4.80066 31.6707 3.40113 29.5762 2.44629 27.271C1.49145 24.9658 1 22.4951 1 20C1 14.9609 3.00178 10.1282 6.56497 6.56497C10.1282 3.00178 14.9609 1 20 1C25.0391 1 29.8718 3.00178 33.435 6.56497C36.9982 10.1282 39 14.9609 39 20Z" stroke="#626367" stroke-width="1.5" stroke-linecap="round" stroke-linejoin="round"/>
</svg>
