<svg width="36" height="33" viewBox="0 0 36 33" fill="none" xmlns="http://www.w3.org/2000/svg">
<path d="M18 8.04545H20.8333M18 13.6818H20.8333M6.66667 19.3182H20.8333M6.66667 24.9545H20.8333M26.5 8.04545H32.875C34.048 8.04545 35 8.99236 35 10.1591V27.7727C35 28.8939 34.5522 29.9691 33.7552 30.7619C32.9582 31.5546 31.8772 32 30.75 32M26.5 8.04545V27.7727C26.5 28.8939 26.9478 29.9691 27.7448 30.7619C28.5418 31.5546 29.6228 32 30.75 32M26.5 8.04545V3.11364C26.5 1.94691 25.548 1 24.375 1H3.125C1.952 1 1 1.94691 1 3.11364V27.7727C1 28.8939 1.44777 29.9691 2.2448 30.7619C3.04183 31.5546 4.12283 32 5.25 32H30.75M6.66667 8.04545H12.3333V13.6818H6.66667V8.04545Z" stroke="#626367" stroke-width="1.5" stroke-linecap="round" stroke-linejoin="round"/>
</svg>
